<?xml version="1.0" encoding="UTF-8"?>
<svg xmlns="http://www.w3.org/2000/svg" xmlns:xlink="http://www.w3.org/1999/xlink" viewBox="0 0 30 30" width="30px" height="30px">
<g id="surface113592359">
<rect x="0" y="0" width="30" height="30" style="fill:rgb(0%,0%,0%);fill-opacity:1;stroke:none;"/>
<path style=" stroke:none;fill-rule:nonzero;fill:rgb(100%,100%,100%);fill-opacity:1;" d="M 24 4 L 6 4 C 4.894531 4 4 4.894531 4 6 L 4 24 C 4 25.105469 4.894531 26 6 26 L 24 26 C 25.105469 26 26 25.105469 26 24 L 26 6 C 26 4.894531 25.105469 4 24 4 Z M 20 21.714844 C 20 21.769531 19.976562 21.824219 19.933594 21.855469 C 19.878906 21.910156 18.304688 23 15.429688 23 C 11.980469 23 12 18.871094 12 18.429688 L 12 13.859375 L 9.914062 13.859375 C 9.800781 13.859375 9.714844 13.769531 9.714844 13.660156 L 9.714844 11.761719 C 9.714844 11.671875 9.757812 11.605469 9.835938 11.574219 C 9.867188 11.5625 13.140625 10.121094 13.140625 7.199219 C 13.144531 7.089844 13.230469 7 13.34375 7 L 15.230469 7 C 15.339844 7 15.429688 7.089844 15.429688 7.199219 L 15.429688 11.570312 L 18.660156 11.570312 C 18.757812 11.570312 18.859375 11.660156 18.859375 11.769531 L 18.859375 13.660156 C 18.859375 13.769531 18.757812 13.859375 18.660156 13.859375 L 15.429688 13.859375 L 15.429688 18.429688 C 15.429688 18.496094 15.324219 19.886719 16.800781 19.886719 C 18.011719 19.886719 19.679688 19.488281 19.691406 19.488281 C 19.757812 19.441406 19.835938 19.441406 19.890625 19.476562 C 19.953125 19.511719 20 19.574219 20 19.652344 Z M 20 21.714844 "/>
</g>
</svg>
